<svg height="24" viewBox="0 0 24 24" width="24" xmlns="http://www.w3.org/2000/svg"><path d="m22 12c0-5.54-4.46-10-10-10-1.17 0-2.3.19-3.38.56l.7 1.94c.85-.34 1.74-.53 2.68-.53 4.41 0 8.03 3.62 8.03 8.03s-3.62 8.03-8.03 8.03-8.03-3.62-8.03-8.03c0-.94.19-1.88.53-2.72l-1.94-.66c-.37 1.08-.56 2.21-.56 3.38 0 5.54 4.46 10 10 10s10-4.46 10-10m-16.53-8.03c.85 0 1.53.71 1.53 1.5 0 .85-.68 1.53-1.53 1.53-.79 0-1.5-.68-1.5-1.53 0-.79.71-1.5 1.5-1.5m12.53 8.03c0-3.33-2.67-6-6-6s-6 2.67-6 6 2.67 6 6 6 6-2.67 6-6m-3 0-5 3v-6"/></svg>